<?xml version="1.0" encoding="UTF-8"?>
<!-- Generated by Pixelmator Pro 2.4.2 -->
<svg width="257" height="36" viewBox="0 0 257 36" xmlns="http://www.w3.org/2000/svg" xmlns:xlink="http://www.w3.org/1999/xlink">
    <path id="Path" fill="#fe6019" stroke="none" visibility="hidden" d="M 36 18 C 36 20.3638 35.534401 22.704399 34.629799 24.8883 C 33.725201 27.072201 32.399399 29.056499 30.7279 30.7279 C 29.056499 32.399399 27.072201 33.725201 24.8883 34.629799 C 22.704399 35.534401 20.3638 36 18 36 C 15.6362 36 13.2956 35.534401 11.1117 34.629799 C 8.92784 33.725201 6.94353 32.399399 5.27208 30.7279 C 3.60062 29.056499 2.27475 27.072201 1.37017 24.8883 C 0.465583 22.704399 -0 20.3638 0 18 L 9 18 C 9 19.1819 9.23279 20.3522 9.68508 21.444201 C 10.1374 22.5361 10.8003 23.5282 11.636 24.364 C 12.4718 25.199699 13.4639 25.8626 14.5558 26.314899 C 15.6478 26.7672 16.8181 27 18 27 C 19.1819 27 20.3522 26.7672 21.444201 26.314899 C 22.5361 25.8626 23.5282 25.199699 24.364 24.364 C 25.199699 23.5282 25.8626 22.5361 26.314899 21.444201 C 26.7672 20.3522 27 19.1819 27 18 L 36 18 Z"/>
    <path id="path1" fill="#fffaf3" stroke="none" visibility="hidden" d="M -2e-06 18 C -2e-06 15.6362 0.465582 13.295601 1.37016 11.1117 C 2.27475 8.927841 3.60062 6.943541 5.27207 5.272079 C 6.94353 3.600632 8.92783 2.274761 11.1117 1.370171 C 13.2956 0.465588 15.6362 0 18 0 C 20.3638 0 22.704399 0.465584 24.8883 1.370171 C 27.072201 2.27475 29.056499 3.60062 30.7279 5.272079 C 32.399399 6.943531 33.725201 8.927841 34.629799 11.1117 C 35.534401 13.295601 36 15.6362 36 18 L 27 18 C 27 16.8181 26.7672 15.6478 26.314899 14.555801 C 25.8626 13.4639 25.199699 12.4718 24.364 11.636 C 23.5282 10.800301 22.5361 10.1374 21.444099 9.685089 C 20.3522 9.23279 19.1819 9 18 9 C 16.8181 9 15.6478 9.23279 14.5558 9.685089 C 13.4639 10.1374 12.4718 10.800301 11.636 11.636 C 10.8003 12.4718 10.1374 13.4639 9.68508 14.555901 C 9.23279 15.6478 9 16.8181 9 18 L -2e-06 18 Z"/>
    <path id="Ellipse" fill="#00a2ff" fill-rule="evenodd" stroke="none" d="M 39 18 C 39 9.715729 32.284271 3 24 3 C 15.715729 3 9 9.715729 9 18 C 9 26.284271 15.715729 33 24 33 C 32.284271 33 39 26.284271 39 18 Z"/>
    <filter id="filter1" x="0" y="0" width="257" height="36" filterUnits="userSpaceOnUse" primitiveUnits="userSpaceOnUse" color-interpolation-filters="sRGB">
        <feGaussianBlur stdDeviation="5"/>
        <feOffset dx="-0" dy="2" result="offsetblur"/>
        <feFlood flood-color="#000000" flood-opacity="0.5"/>
        <feComposite in2="offsetblur" operator="in"/>
        <feMerge>
            <feMergeNode/>
            <feMergeNode in="SourceGraphic"/>
        </feMerge>
    </filter>
    <path id="Semicircle" fill="#f55c18" fill-rule="evenodd" stroke="none" filter="url(#filter1)" d="M 43 22 C 43 22 28.68198 30 20.62162 30 C 12.561261 30 7 26.858635 7 21.75 Z"/>
    <filter id="filter2" x="0" y="0" width="257" height="36" filterUnits="userSpaceOnUse" primitiveUnits="userSpaceOnUse" color-interpolation-filters="sRGB">
        <feGaussianBlur stdDeviation="5"/>
        <feOffset dx="-0" dy="2" result="offsetblur"/>
        <feFlood flood-color="#000000" flood-opacity="0.5"/>
        <feComposite in2="offsetblur" operator="in"/>
        <feMerge>
            <feMergeNode/>
            <feMergeNode in="SourceGraphic"/>
        </feMerge>
    </filter>
    <path id="Right-Triangle" fill="#ffe0d3" fill-rule="evenodd" stroke="none" filter="url(#filter2)" d="M 6 21 C 10.068045 19.820395 12.177148 17.570118 14 15 C 16.82592 10.462809 21 2 21 2 L 21 21 C 21 21 9.851815 21.08708 6 21"/>
    <filter id="filter3" x="0" y="0" width="257" height="36" filterUnits="userSpaceOnUse" primitiveUnits="userSpaceOnUse" color-interpolation-filters="sRGB">
        <feGaussianBlur stdDeviation="5"/>
        <feOffset dx="-0" dy="2" result="offsetblur"/>
        <feFlood flood-color="#000000" flood-opacity="0.5"/>
        <feComposite in2="offsetblur" operator="in"/>
        <feMerge>
            <feMergeNode/>
            <feMergeNode in="SourceGraphic"/>
        </feMerge>
    </filter>
    <path id="Quarter-Circle" fill="#fffaf3" fill-rule="evenodd" stroke="none" filter="url(#filter3)" d="M 36.932133 21 C 43.615833 20.71172 39.404945 16.287884 36 12 C 34.828461 10.524668 32.513176 9.149134 31 8 C 27.10898 5.045084 22.868122 2.872387 18.892845 2 C 18.892845 2 25.220284 7.702509 24.741154 13 C 24.533781 15.292809 18.892845 21 18.892845 21 C 18.892845 21 31.91114 21.216564 36.932133 21 Z"/>
    <text id="The-Dry-Dock" xml:space="preserve" x="48" y="29" font-family="Phosphate" font-size="30.857517" font-weight="700" fill="#000000">The Dry Dock</text>
</svg>
